<svg xmlns="http://www.w3.org/2000/svg" id="a" width="1732.37" height="220.03" viewBox="0 0 1732.37 220.03"><path d="M0,165.02l36.06,36.65,18.13-18.33-36.16-36.65,18.03-18.33,36.16,36.65,18.03-18.33-36.06-36.65,36.06-36.65-18.03-18.42-36.16,36.75-18.03-18.33L54.19,36.65l-18.13-18.33L0,54.98v36.75l18.03,18.33L0,128.37v36.65H0Zm866.18,0l36.06,36.65,18.13-18.33-36.16-36.65,18.03-18.33,36.16,36.65,18.03-18.33-36.06-36.65,36.06-36.65-18.03-18.42-36.16,36.75-18.03-18.33,36.16-36.75-18.13-18.33-36.06,36.65-36.06-36.65-18.03,18.33,36.06,36.75-18.03,18.33-36.06-36.75-18.13,18.42,36.16,36.65-36.16,36.65,18.13,18.33,36.06-36.65,18.03,18.33-36.06,36.65,18.03,18.33,36.06-36.65h0Zm0-73.3l18.03,18.33-18.03,18.33-18.03-18.33,18.03-18.33Zm866.18-36.75l-36.06-36.65-18.03,18.33,36.06,36.75-18.03,18.33-36.16-36.75-18.03,18.42,36.16,36.65-36.16,36.65,18.03,18.33,36.16-36.65,18.03,18.33-36.06,36.65,18.03,18.33,36.06-36.65v-36.65l-18.03-18.33,18.03-18.33V54.98h0Zm-180.41,36.74l-36.16-36.75h0l-36.06,36.75-18.03-18.33,36.06-36.75-18.03-18.33-36.06,36.65-18.03-18.33L1461.7,0h-36.06l-18.13,18.33-18.03-18.33h-36.06l36.06,36.65,18.03,18.33,18.13,18.42,18.03,18.33,18.03,18.33h0l-18.03,18.33-18.03,18.33-18.13,18.33-18.03,18.33-36.06,36.65h36.06l18.03-18.33,18.13,18.33h36.06l-36.06-36.65,18.03-18.33,36.06,36.65,18.03-18.33-36.06-36.65,18.03-18.33,36.06,36.65h0l36.16-36.65,18.03,18.33-36.16,36.65,18.13,18.33,36.06-36.65,18.03,18.33-36.06,36.65h36.06l18.03-18.33,18.03,18.33h36.16l-36.16-36.65-18.03-18.33-18.03-18.33-18.03-18.33-18.03-18.33h0l18.03-18.33,18.03-18.33,18.03-18.42,18.03-18.33L1678.27,0h-36.16l-18.03,18.33-18.03-18.33h-36.06l36.06,36.65-18.03,18.33-36.06-36.65-18.13,18.33,36.16,36.75-18.03,18.33v-.02Zm-36.17,0l18.03,18.33-18.03,18.33-18.03-18.33,18.03-18.33Zm126.32,18.33h0l-18.03,18.33-18.03-18.33,18.03-18.33,18.03,18.33ZM1533.83,0l-18.03,18.33-18.03-18.33h36.06Zm198.54,18.33l-18.03-18.33h18.03V18.33Zm-433.04,36.65l36.06-36.65,18.03,18.33-36.06,36.75,18.03,18.33,36.06-36.75,18.03,18.42-36.06,36.65,36.06,36.65-18.03,18.33-36.06-36.65-18.03,18.33,36.06,36.65-18.03,18.33-36.06-36.65-36.16,36.65-18.03-18.33,36.06-36.65-18.03-18.33-36.06,36.65-18.03-18.33,36.06-36.65-36.06-36.65,18.03-18.42,36.06,36.75,18.03-18.33-36.06-36.75,18.03-18.33,36.16,36.65Zm18.03,55.07l-18.03-18.33-18.13,18.33,18.13,18.33,18.03-18.33Zm72.12,0h0l18.03,18.33,18.13-18.33-18.13-18.33-18.03,18.33Zm-90.16-91.72L1317.35,0h-36.16l18.13,18.33Zm234.5,201.67l-18.03-18.33-18.03,18.33h36.06Zm198.54-18.33l-18.03,18.33h18.03v-18.33Zm-433.04,0l18.03,18.33h-36.16l18.13-18.33Zm-180.51-109.95l-36.06-36.75h0l-36.06,36.75-18.13-18.33,36.16-36.75-18.03-18.33-36.16,36.65-18.03-18.33L1028.56,0h-36.06l-18.03,18.33L956.44,0h-36.06l36.06,36.65,18.03,18.33,18.03,18.42,18.03,18.33,18.03,18.33h0l-18.03,18.33-18.03,18.33-18.03,18.33-18.03,18.33-36.06,36.65h36.06l18.03-18.33,18.03,18.33h36.06l-36.06-36.65,18.03-18.33,36.16,36.65,18.03-18.33-36.16-36.65,18.13-18.33,36.06,36.65h0l36.06-36.65,18.03,18.33-36.06,36.65,18.03,18.33,36.06-36.65,18.13,18.33-36.16,36.65h36.16l18.03-18.33,18.03,18.33h36.06l-36.06-36.65-18.03-18.33-18.03-18.33-18.13-18.33-18.03-18.33h0l18.03-18.33,18.13-18.33,18.03-18.42,18.03-18.33L1245.13,0h-36.06l-18.03,18.33-18.03-18.33h-36.16l36.16,36.65-18.13,18.33-36.06-36.65-18.03,18.33,36.06,36.75-18.03,18.33v-.02Zm-36.07,0l18.03,18.33-18.03,18.33-18.03-18.33,18.03-18.33Zm126.32,18.33h0l-18.03,18.33-18.03-18.33,18.03-18.33,18.03,18.33ZM1100.78,0l-18.03,18.33-18.03-18.33h36.06Zm-144.35,110.05h0l18.03,18.33,18.03-18.33-18.03-18.33-18.03,18.33Zm-90.25-91.72L884.21,0h-36.06s18.03,18.33,18.03,18.33Zm234.6,201.67l-18.03-18.33-18.03,18.33h36.06Zm-234.6-18.33l18.03,18.33h-36.06l18.03-18.33h0Zm-180.41-109.95l-36.16-36.75h0l-36.06,36.75-18.03-18.33,36.06-36.75-18.03-18.33-36.06,36.65-18.03-18.33L595.52,0h-36.06l-18.13,18.33L523.3,0h-36.06l36.06,36.65,18.03,18.33,18.13,18.42,18.03,18.33,18.03,18.33h0l-18.03,18.33-18.03,18.33-18.13,18.33-18.03,18.33-36.06,36.65h36.06l18.03-18.33,18.13,18.33h36.06l-36.06-36.65,18.03-18.33,36.06,36.65,18.03-18.33-36.06-36.65,18.03-18.33,36.06,36.65h0l36.16-36.65,18.03,18.33-36.06,36.65,18.03,18.33,36.06-36.65,18.03,18.33-36.06,36.65h36.06l18.03-18.33,18.03,18.33h36.16l-36.16-36.65-18.03-18.33-18.03-18.33-18.03-18.33-18.03-18.33h0l18.03-18.33,18.03-18.33,18.03-18.42,18.03-18.33L812.09,0h-36.16l-18.03,18.33L739.87,0h-36.06l36.06,36.65-18.03,18.33-36.06-36.65-18.03,18.33,36.06,36.75-18.03,18.33v-.02Zm-36.17,0l18.13,18.33-18.13,18.33-18.03-18.33,18.03-18.33Zm126.32,18.33h0l-18.03,18.33-18.03-18.33,18.03-18.33,18.03,18.33ZM667.64,0l-18.03,18.33L631.58,0h36.06Zm-234.5,54.98l36.06-36.65,18.03,18.33-36.06,36.75,18.03,18.33,36.06-36.75,18.03,18.42-36.06,36.65,36.06,36.65-18.03,18.33-36.06-36.65-18.03,18.33,36.06,36.65-18.03,18.33-36.06-36.65-36.16,36.65-18.03-18.33,36.06-36.65-18.03-18.33-36.06,36.65-18.03-18.33,36.06-36.65-36.06-36.65,18.03-18.42,36.06,36.75,18.03-18.33-36.06-36.75,18.03-18.33,36.16,36.65h0Zm18.03,55.07l-18.03-18.33-18.13,18.33,18.13,18.33,18.03-18.33Zm72.12,0h0l18.03,18.33,18.13-18.33-18.13-18.33-18.03,18.33ZM433.14,18.33L451.17,0h-36.16l18.13,18.33Zm234.6,201.67l-18.13-18.33-18.03,18.33h36.16Zm-234.6-18.33l18.03,18.33h-36.16l18.13-18.33ZM252.63,91.72l-36.06-36.75h0l-36.06,36.75-18.13-18.33,36.16-36.75-18.03-18.33-36.16,36.65-18.03-18.33L162.38,0h-36.06l-18.03,18.33L90.25,0H54.19l36.06,36.65,18.03,18.33,18.03,18.42,18.03,18.33,18.03,18.33h0l-18.03,18.33-18.03,18.33-18.03,18.33-18.03,18.33-36.06,36.65h36.06l18.03-18.33,18.03,18.33h36.06l-36.06-36.65,18.03-18.33,36.16,36.65,18.03-18.33-36.16-36.65,18.13-18.33,36.06,36.65h0l36.06-36.65,18.03,18.33-36.06,36.65,18.03,18.33,36.06-36.65,18.13,18.33-36.16,36.65h36.16l18.03-18.33,18.03,18.33h36.06l-36.06-36.65-18.03-18.33-18.03-18.33-18.13-18.33-18.03-18.33h0l18.03-18.33,18.13-18.33,18.03-18.42,18.03-18.33L378.95,0h-36.06l-18.03,18.33L306.82,0h-36.16l36.16,36.65-18.13,18.33-36.06-36.65-18.03,18.33,36.06,36.75-18.03,18.33v-.02Zm-36.06,0l18.03,18.33-18.03,18.33-18.03-18.33,18.03-18.33Zm126.32,18.33h0l-18.03,18.33-18.03-18.33,18.03-18.33,18.03,18.33ZM234.6,0l-18.03,18.33L198.54,0h36.06ZM90.25,110.05h0l18.03,18.33,18.03-18.33-18.03-18.33-18.03,18.33ZM0,18.33L18.03,0H0V18.33ZM234.6,220l-18.03-18.33-18.03,18.33h36.06ZM0,201.67l18.03,18.33H0v-18.33Z" style="fill: #5d120e; fill-rule: evenodd; opacity: .5;"></path></svg>